# xmcd CD database file
#
# Track frame offsets:
#	150
#	35645
#	60737
#	99422
#	131035
#	164172
#
# Disc length: 2558 seconds
#
# Revision: 0
# Processed by: cddbd v1.5.1PL0 Copyright (c) Steve Scherf et al.
# Submitted via: CDex 1.51
#
DISCID=5409fc06
DTITLE=Hank Mobley - No Room for Squares BNST-84149
DYEAR=1963
DGENRE=Jazz
TTITLE0=Three Way Split
TTITLE1=Carolyn
TTITLE2=Up a Step
TTITLE3=No Room for Squares
TTITLE4=Me'n You
TTITLE5=Old World, New Imports
EXTD=YEAR: 1963
EXTT0=
EXTT1=
EXTT2=
EXTT3=
EXTT4=
EXTT5=
PLAYORDER=
